<svg width="512" height="512" viewBox="0 0 512 512" xmlns="http://www.w3.org/2000/svg">
  <defs>
    <linearGradient id="gradient" x1="0%" y1="0%" x2="100%" y2="100%">
      <stop offset="0%" style="stop-color:#ff2442;stop-opacity:1" />
      <stop offset="100%" style="stop-color:#ff6b6b;stop-opacity:1" />
    </linearGradient>
  </defs>
  
  <!-- 背景圆形 -->
  <circle cx="256" cy="256" r="240" fill="url(#gradient)" stroke="#fff" stroke-width="8"/>
  
  <!-- 书本图标 -->
  <g transform="translate(256,256)">
    <!-- 书本主体 -->
    <rect x="-80" y="-100" width="160" height="200" rx="8" fill="#fff" opacity="0.9"/>
    
    <!-- 书本装订线 -->
    <line x1="-80" y1="-80" x2="-80" y2="80" stroke="#ff2442" stroke-width="4"/>
    <line x1="-70" y1="-80" x2="-70" y2="80" stroke="#ff2442" stroke-width="2"/>
    
    <!-- 文字线条 -->
    <line x1="-50" y1="-60" x2="50" y2="-60" stroke="#333" stroke-width="3" opacity="0.7"/>
    <line x1="-50" y1="-40" x2="50" y2="-40" stroke="#333" stroke-width="3" opacity="0.7"/>
    <line x1="-50" y1="-20" x2="30" y2="-20" stroke="#333" stroke-width="3" opacity="0.7"/>
    
    <line x1="-50" y1="10" x2="50" y2="10" stroke="#333" stroke-width="3" opacity="0.5"/>
    <line x1="-50" y1="30" x2="40" y2="30" stroke="#333" stroke-width="3" opacity="0.5"/>
    <line x1="-50" y1="50" x2="50" y2="50" stroke="#333" stroke-width="3" opacity="0.5"/>
    
    <!-- 心形图标 -->
    <g transform="translate(30,-70) scale(0.8)">
      <path d="M12,21.35l-1.45-1.32C5.4,15.36,2,12.28,2,8.5 C2,5.42,4.42,3,7.5,3c1.74,0,3.41,0.81,4.5,2.09C13.09,3.81,14.76,3,16.5,3 C19.58,3,22,5.42,22,8.5c0,3.78-3.4,6.86-8.55,11.54L12,21.35z" 
            fill="#ff2442" transform="translate(-12,-12)"/>
    </g>
  </g>
  
  <!-- 装饰性元素 -->
  <circle cx="100" cy="100" r="8" fill="#fff" opacity="0.3"/>
  <circle cx="400" cy="120" r="6" fill="#fff" opacity="0.4"/>
  <circle cx="80" cy="400" r="10" fill="#fff" opacity="0.2"/>
  <circle cx="420" cy="380" r="7" fill="#fff" opacity="0.3"/>
</svg>
